<svg id="Layer_1" data-name="Layer 1" xmlns="http://www.w3.org/2000/svg" viewBox="0 0 483 434"><defs><style>.cls-1{fill:#404042;}</style></defs><title>menu</title><path class="cls-1" d="M34.5,75h446a18.5,18.5,0,0,0,0-37H34.5a18.5,18.5,0,0,0,0,37Z" transform="translate(-16 -38)"/><path class="cls-1" d="M480.5,236.5H34.5a18.5,18.5,0,0,0,0,37h446a18.5,18.5,0,0,0,0-37Z" transform="translate(-16 -38)"/><path class="cls-1" d="M480.5,435H34.5a18.5,18.5,0,0,0,0,37h446a18.5,18.5,0,0,0,0-37Z" transform="translate(-16 -38)"/></svg>