<?xml version="1.0" encoding="utf-8"?>
<!-- Generator: Adobe Illustrator 23.0.1, SVG Export Plug-In . SVG Version: 6.00 Build 0)  -->
<svg version="1.1" xmlns="http://www.w3.org/2000/svg" xmlns:xlink="http://www.w3.org/1999/xlink" x="0px" y="0px"
	 viewBox="0 0 327.1 50.9" style="enable-background:new 0 0 327.1 50.9;" xml:space="preserve">
<style type="text/css">
	.st0{fill:#3F65DA;}
	.st1{fill:#F64010;}
	.st2{fill:#FFB71D;}
	.st3{fill:#76C23B;}
</style>
<g id="Layer_1">
</g>
<g id="Layer_2">
	<g>
		<path d="M46.4,13.9H49v2.9c0.8-1.1,1.6-2,2.5-2.6c0.9-0.6,1.8-0.9,2.7-0.9c0.7,0,1.5,0.2,2.3,0.7l-1.3,2.2c-0.5-0.2-1-0.3-1.4-0.3
			c-0.9,0-1.7,0.4-2.5,1.1c-0.8,0.7-1.4,1.8-1.8,3.3C49.1,21.3,49,23.6,49,27v6.7h-2.6V13.9z"/>
		<path d="M59.5,5.7c0.6,0,1.1,0.2,1.5,0.6c0.4,0.4,0.6,0.9,0.6,1.5c0,0.6-0.2,1.1-0.6,1.5c-0.4,0.4-0.9,0.6-1.5,0.6
			c-0.6,0-1.1-0.2-1.5-0.6s-0.6-0.9-0.6-1.5c0-0.6,0.2-1.1,0.6-1.5C58.4,5.9,58.9,5.7,59.5,5.7z M58.2,13.9h2.6v19.9h-2.6V13.9z"/>
		<path d="M83.3,13.9h2.6v15.9c0,2.8-0.2,4.8-0.7,6.1c-0.7,1.8-1.8,3.2-3.5,4.2c-1.7,1-3.7,1.5-6,1.5c-1.7,0-3.2-0.2-4.6-0.7
			c-1.4-0.5-2.5-1.1-3.3-1.9c-0.9-0.8-1.6-2-2.4-3.6h2.8c0.8,1.3,1.7,2.3,2.9,2.9c1.2,0.6,2.7,1,4.5,1c1.7,0,3.2-0.3,4.4-1
			c1.2-0.7,2.1-1.5,2.6-2.5c0.5-1,0.8-2.6,0.8-4.8v-1c-1,1.2-2.1,2.2-3.5,2.8c-1.4,0.7-2.9,1-4.4,1c-1.8,0-3.6-0.5-5.2-1.4
			c-1.6-0.9-2.9-2.1-3.7-3.7c-0.9-1.5-1.3-3.2-1.3-5.1s0.5-3.6,1.4-5.2c0.9-1.6,2.2-2.9,3.8-3.8c1.6-0.9,3.3-1.4,5.1-1.4
			c1.5,0,2.9,0.3,4.2,0.9c1.3,0.6,2.5,1.6,3.7,3V13.9z M75.7,15.8c-1.5,0-2.8,0.4-4,1.1c-1.2,0.7-2.2,1.7-2.9,2.9
			c-0.7,1.2-1.1,2.6-1.1,4c0,2.2,0.7,4,2.2,5.4c1.5,1.4,3.4,2.1,5.7,2.1c2.4,0,4.2-0.7,5.7-2.1c1.4-1.4,2.2-3.3,2.2-5.6
			c0-1.5-0.3-2.8-1-4s-1.6-2.1-2.8-2.8S77.1,15.8,75.7,15.8z"/>
		<path d="M92.2,5.7c0.6,0,1.1,0.2,1.5,0.6c0.4,0.4,0.6,0.9,0.6,1.5c0,0.6-0.2,1.1-0.6,1.5c-0.4,0.4-0.9,0.6-1.5,0.6
			c-0.6,0-1.1-0.2-1.5-0.6s-0.6-0.9-0.6-1.5c0-0.6,0.2-1.1,0.6-1.5C91.2,5.9,91.7,5.7,92.2,5.7z M91,13.9h2.6v19.9H91V13.9z"/>
		<path d="M98.8,13.9h2.6v3.6c1-1.4,2.2-2.4,3.4-3.1c1.2-0.7,2.6-1,4.1-1c1.5,0,2.8,0.4,4,1.1c1.2,0.8,2,1.8,2.6,3.1
			c0.5,1.3,0.8,3.3,0.8,6v10.3h-2.6v-9.5c0-2.3-0.1-3.8-0.3-4.6c-0.3-1.3-0.9-2.3-1.7-3c-0.8-0.7-1.9-1-3.3-1
			c-1.6,0-2.9,0.5-4.2,1.5c-1.2,1-2,2.3-2.4,3.8c-0.2,1-0.4,2.8-0.4,5.4v7.3h-2.6V13.9z"/>
		<path d="M141.5,13.9v19.9H139v-3.4c-1.1,1.3-2.3,2.3-3.6,2.9c-1.3,0.7-2.8,1-4.4,1c-2.8,0-5.2-1-7.2-3.1c-2-2-3-4.5-3-7.5
			c0-2.9,1-5.3,3-7.4s4.4-3.1,7.3-3.1c1.6,0,3.1,0.3,4.4,1s2.5,1.7,3.5,3.1v-3.7H141.5z M131.3,15.8c-1.4,0-2.7,0.4-3.9,1.1
			c-1.2,0.7-2.2,1.7-2.9,3c-0.7,1.3-1.1,2.6-1.1,4c0,1.4,0.4,2.7,1.1,4s1.7,2.3,2.9,3c1.2,0.7,2.5,1.1,3.9,1.1c1.4,0,2.7-0.4,4-1.1
			c1.3-0.7,2.2-1.7,2.9-2.9c0.7-1.2,1-2.6,1-4.1c0-2.3-0.8-4.2-2.3-5.8C135.4,16.6,133.5,15.8,131.3,15.8z"/>
		<path d="M146.9,6.2h2.6v27.6h-2.6V6.2z"/>
		<path d="M174,17.9l-4.2,2.3c-0.8-0.8-1.6-1.4-2.3-1.7c-0.8-0.3-1.7-0.5-2.7-0.5c-1.9,0-3.4,0.6-4.5,1.7c-1.2,1.1-1.7,2.5-1.7,4.3
			c0,1.7,0.6,3.1,1.7,4.1c1.1,1.1,2.6,1.6,4.4,1.6c2.2,0,4-0.8,5.2-2.3l3.9,2.7c-2.1,2.8-5.2,4.2-9,4.2c-3.5,0-6.2-1-8.2-3.1
			c-2-2.1-3-4.5-3-7.3c0-1.9,0.5-3.7,1.4-5.3c1-1.6,2.3-2.9,4-3.8c1.7-0.9,3.7-1.4,5.8-1.4c2,0,3.8,0.4,5.3,1.2S173,16.4,174,17.9z"
			/>
		<path d="M187.8,13.3c1.9,0,3.6,0.5,5.3,1.4c1.7,0.9,2.9,2.2,3.9,3.8s1.4,3.4,1.4,5.2c0,1.9-0.5,3.6-1.4,5.3
			c-0.9,1.6-2.2,2.9-3.8,3.8c-1.6,0.9-3.4,1.4-5.3,1.4c-2.9,0-5.3-1-7.3-3c-2-2-3-4.5-3-7.4c0-3.1,1.1-5.7,3.4-7.8
			C182.9,14.2,185.2,13.3,187.8,13.3z M187.9,18c-1.6,0-2.8,0.5-3.9,1.6s-1.5,2.5-1.5,4.1c0,1.7,0.5,3.1,1.5,4.2
			c1,1.1,2.3,1.6,3.9,1.6s2.9-0.5,3.9-1.6c1-1.1,1.6-2.5,1.6-4.2c0-1.7-0.5-3.1-1.5-4.2C190.8,18.6,189.5,18,187.9,18z"/>
		<path d="M202.5,13.9h5v2c1.1-1,2.2-1.6,3.1-2s1.9-0.6,2.8-0.6c2,0,3.6,0.7,5,2.1c1.2,1.2,1.7,2.9,1.7,5.2v13.2h-4.9V25
			c0-2.4-0.1-4-0.3-4.7s-0.6-1.4-1.1-1.8c-0.5-0.4-1.2-0.6-2-0.6c-1,0-1.9,0.3-2.6,1c-0.7,0.7-1.2,1.6-1.5,2.8c-0.1,0.6-0.2,2-0.2,4
			v8h-5V13.9z"/>
		<path d="M244.5,17.9l-4.2,2.3c-0.8-0.8-1.6-1.4-2.3-1.7c-0.8-0.3-1.7-0.5-2.7-0.5c-1.9,0-3.4,0.6-4.5,1.7
			c-1.2,1.1-1.7,2.5-1.7,4.3c0,1.7,0.6,3.1,1.7,4.1c1.1,1.1,2.6,1.6,4.4,1.6c2.2,0,4-0.8,5.2-2.3l3.9,2.7c-2.1,2.8-5.1,4.2-9,4.2
			c-3.5,0-6.2-1-8.2-3.1c-2-2.1-3-4.5-3-7.3c0-1.9,0.5-3.7,1.4-5.3s2.3-2.9,4-3.8c1.7-0.9,3.7-1.4,5.8-1.4c2,0,3.8,0.4,5.3,1.2
			S243.5,16.4,244.5,17.9z"/>
		<path d="M268.9,25.3h-16.1c0.2,1.4,0.9,2.5,1.9,3.4s2.3,1.3,3.9,1.3c1.9,0,3.5-0.7,4.8-2l4.2,2c-1,1.5-2.3,2.6-3.8,3.3
			c-1.5,0.7-3.2,1.1-5.2,1.1c-3.1,0-5.7-1-7.6-3c-2-2-2.9-4.4-2.9-7.4c0-3,1-5.6,2.9-7.6c2-2,4.4-3,7.4-3c3.1,0,5.7,1,7.7,3
			c2,2,2.9,4.7,2.9,8L268.9,25.3z M263.9,21.3c-0.3-1.1-1-2-2-2.7c-1-0.7-2.1-1-3.4-1c-1.4,0-2.6,0.4-3.7,1.2
			c-0.7,0.5-1.3,1.3-1.8,2.6H263.9z"/>
		<path d="M277.9,13.9V16c0.9-0.9,1.9-1.6,2.9-2c1-0.5,2.2-0.7,3.4-0.7c2.6,0,4.8,1,6.6,2.9c1.8,2,2.7,4.5,2.7,7.6
			c0,3-0.9,5.4-2.8,7.4c-1.9,2-4.1,3-6.7,3c-1.1,0-2.2-0.2-3.2-0.6c-1-0.4-2-1.1-2.9-2v9.4h-5V13.9H277.9z M283.2,18
			c-1.6,0-2.9,0.5-3.9,1.6s-1.6,2.5-1.6,4.2c0,1.8,0.5,3.2,1.6,4.3s2.3,1.6,3.9,1.6c1.5,0,2.8-0.6,3.9-1.7c1-1.1,1.6-2.5,1.6-4.2
			c0-1.7-0.5-3.1-1.5-4.2C286.1,18.5,284.8,18,283.2,18z"/>
		<path d="M298.3,6.5h5v7.3h3v4.3h-3v15.6h-5V18.2h-2.6v-4.3h2.6V6.5z"/>
		<path d="M321.2,16.6l-3.1,3.1c-1.3-1.2-2.4-1.9-3.4-1.9c-0.6,0-1,0.1-1.3,0.4c-0.3,0.2-0.5,0.5-0.5,0.9c0,0.3,0.1,0.5,0.3,0.7
			c0.2,0.2,0.7,0.5,1.5,0.9l1.8,0.9c1.9,1,3.3,1.9,4,2.9c0.7,1,1.1,2.1,1.1,3.5c0,1.8-0.7,3.2-1.9,4.4c-1.3,1.2-3,1.8-5.2,1.8
			c-2.9,0-5.2-1.1-7-3.4l3.1-3.4c0.6,0.7,1.3,1.2,2.1,1.7c0.8,0.4,1.5,0.6,2.1,0.6c0.7,0,1.2-0.2,1.6-0.5c0.4-0.3,0.6-0.7,0.6-1.1
			c0-0.8-0.7-1.5-2.2-2.3l-1.7-0.8c-3.2-1.6-4.8-3.7-4.8-6.1c0-1.6,0.6-2.9,1.8-4c1.2-1.1,2.8-1.7,4.7-1.7c1.3,0,2.5,0.3,3.7,0.9
			C319.4,14.8,320.4,15.6,321.2,16.6z"/>
	</g>
	<g>
		<path class="st0" d="M10.4,13.5c0,0-5.6,7.7-5.9,13.6c-0.4,5.8-0.1,12.3,6.8,17c7,4.7,12.7,1.3,13.2-0.6c0.5-1.9,0-2.4-3-4.6
			C18.4,36.6,6.4,29.5,10.4,13.5z"/>
		<path class="st1" d="M17.5,33c0,0,5.1,4.9,10.1,4.5c5-0.4,13.5-2.4,14.9-10.8c0,0,0.2-2.9-0.6-3.6c-0.8-0.7-1.9-0.5-3.9,1.5
			C36,26.5,30.3,35.5,17.5,33z"/>
		<path class="st2" d="M31.7,27.9c0,0,4.1-3.1,4-9.8c-0.1-6.7-2.9-11.1-7-12c-4.1-0.9-5.5,1.1-5.5,1.9c0,0.8,0.6,1.7,2.7,3.5
			C28.1,13.2,34.2,18.1,31.7,27.9z"/>
		<path class="st3" d="M27.8,15.7c0,0-3.8-4.5-8.2-4.4c-4.4,0.2-7.1,2.7-7.6,4.4c-0.5,1.6-0.6,3.5-0.4,3.9c0.1,0.4,0.6,1.3,1.5,1.4
			c0.9,0.1,1.5-0.6,1.6-0.9C14.8,19.8,20.1,12.8,27.8,15.7z"/>
	</g>
</g>
</svg>
