<svg id="Layer_1" data-name="Layer 1" xmlns="http://www.w3.org/2000/svg" viewBox="0 0 390.69 392.08"><defs><style>.cls-1{fill:#222;}</style></defs><title>phone</title><path class="cls-1" d="M407.3,299.4l-48-48c-8.74-9.08-19.22-13.88-30.32-13.88s-21.6,4.76-30.6,13.76l-27,27c-2-1.07-3.91-2-5.82-3l-.24-.12a97.15,97.15,0,0,1-8.53-4.65c-25.74-16.35-49.19-37.7-71.65-65.25-10.83-13.7-18.06-25-23.22-36.42,7-6.45,13.66-13.17,19.9-19.55,2.38-2.46,4.89-5,7.32-7.41,9.26-9.26,14.16-19.95,14.16-30.92S198.32,89.21,189.06,80L165.22,56.2c-2.49-2.49-4.81-4.87-7.27-7.4l-.86-.89c-5.19-5.35-10.76-11-16.29-16.13C132,23.16,121.54,18.6,110.54,18.6s-21.47,4.58-30.6,13.28L50,61.8A64.49,64.49,0,0,0,30.83,103c-1.56,19.58,2,40.32,11.29,65.28,14.14,38.38,35.43,73.92,67,111.85a412.68,412.68,0,0,0,137.26,107.5c20.29,9.62,47.42,20.91,77.39,22.85H324c1.81.08,3.52.15,5.35.15,20.77,0,37.48-7.18,51.11-21.95a5.18,5.18,0,0,0,.62-.74A189.86,189.86,0,0,1,395,373.51l1.14-1.1c4.57-4.38,8.19-8,11.37-11.29C425.8,342.05,425.72,317.82,407.3,299.4ZM110.54,44.2c4.12,0,8.36,2.1,12.26,6.06l.1.1c4.62,4.28,9,8.75,13.67,13.48l2.06,2.09c1.38,1.43,2.79,2.85,4.2,4.29S145.57,73,147,74.44l23.84,23.84c4.4,4.41,6.64,8.73,6.64,12.84s-2.24,8.43-6.64,12.84c-1.27,1.27-2.54,2.56-3.81,3.85s-2.42,2.46-3.64,3.68l-1.7,1.72c-6.8,6.87-13.22,13.37-20.24,19.59l-.53.52c-7.85,7.85-6.45,15.65-4.73,20.82a4.77,4.77,0,0,0,.19.5l.13.35c6.38,15.32,15.17,29.63,28.52,46.42,24.13,29.76,49.59,52.94,77.81,70.87a96.91,96.91,0,0,0,9.09,5l1.77.9a96.87,96.87,0,0,1,8.53,4.64l.26.15a2.69,2.69,0,0,1,.29.16c.19.11.38.22.57.31a19.57,19.57,0,0,0,9.13,2.33c5.13,0,9.85-2.12,14-6.32l29.92-29.92c4.08-4.08,8.41-6.24,12.52-6.24,5.43,0,9.82,3.86,12,6.16l48.32,48.24c8.46,8.47,8.37,17-.28,26l0,0c-3.43,3.67-7.08,7.22-10.54,10.53l-.9.88a218.91,218.91,0,0,0-16,16.65c-8.6,9.24-18.79,13.54-32.07,13.54-1.31,0-2.74-.08-4-.15-25.7-1.65-49.77-11.74-67.84-20.35A386,386,0,0,1,128.93,264c-29.6-35.63-49.53-68.78-62.7-104.33-8-21.39-11.15-38.7-9.9-54.44A39.52,39.52,0,0,1,68.18,79.88L97.91,50.16C101.94,46.26,106.31,44.2,110.54,44.2Z" transform="translate(-30.48 -18.6)"/></svg>