<svg id="Layer_1" data-name="Layer 1" xmlns="http://www.w3.org/2000/svg" viewBox="0 0 289.43 411.64"><defs><style>.cls-1{fill:none;}.cls-2{fill:#222;}</style></defs><title>placeholder</title><path class="cls-1" d="M171,105.76a48.4,48.4,0,1,0,48.32,48.4A48.57,48.57,0,0,0,171,105.76Z" transform="translate(-26.28 -9.36)"/><path class="cls-1" d="M171,33.4c-66.5,0-120.76,54.26-120.76,120.76a120.49,120.49,0,0,0,18.14,63.39l104.45,168.3L274.61,215.92a120.54,120.54,0,0,0,17.07-61.76C291.68,87.66,237.5,33.4,171,33.4Zm0,193.12a72.36,72.36,0,1,1,72.36-72.36A72.27,72.27,0,0,1,171,226.52Z" transform="translate(-26.28 -9.36)"/><path class="cls-2" d="M171,9.36C91.2,9.36,26.28,74.28,26.28,154.08a144.46,144.46,0,0,0,21.6,76.1L162.76,415.3A12.05,12.05,0,0,0,173,421h.09a12.05,12.05,0,0,0,10.26-5.86l112-186.92a144.56,144.56,0,0,0,20.41-74.14C315.72,74.28,250.8,9.36,171,9.36ZM274.61,215.92,172.83,385.85,68.38,217.55a120.49,120.49,0,0,1-18.14-63.39C50.24,87.66,104.5,33.4,171,33.4S291.68,87.66,291.68,154.16A120.54,120.54,0,0,1,274.61,215.92Z" transform="translate(-26.28 -9.36)"/><path class="cls-2" d="M171,81.8a72.36,72.36,0,1,0,72.36,72.36A72.44,72.44,0,0,0,171,81.8Zm0,120.76a48.4,48.4,0,1,1,48.32-48.4A48.44,48.44,0,0,1,171,202.56Z" transform="translate(-26.28 -9.36)"/></svg>